<svg width="341" height="38" viewBox="0 0 341 38" fill="none" xmlns="http://www.w3.org/2000/svg">
<path d="M7.99212 3.736V30.76H20.9521L20.1361 37H0.120117V3.736H7.99212Z" fill="#001C00"/>
<path d="M45.3864 37H38.8104L38.4744 33.784C36.6184 36.472 34.0424 37.816 30.7464 37.816C28.4104 37.816 26.6344 37.112 25.4184 35.704C24.2344 34.296 23.6424 32.328 23.6424 29.8V11.512H31.2264V28.84C31.2264 30.088 31.4184 30.968 31.8024 31.48C32.2184 31.96 32.8424 32.2 33.6744 32.2C35.2744 32.2 36.6504 31.208 37.8024 29.224V11.512H45.3864V37Z" fill="#001C00"/>
<path d="M62.3911 10.696C64.1511 10.696 65.7351 10.952 67.1431 11.464C68.5511 11.976 69.8791 12.76 71.1271 13.816L67.8631 18.328C66.2631 17.112 64.6471 16.504 63.0151 16.504C61.3191 16.504 60.0391 17.128 59.1751 18.376C58.3111 19.624 57.8791 21.64 57.8791 24.424C57.8791 27.112 58.3111 29.016 59.1751 30.136C60.0391 31.256 61.2871 31.816 62.9191 31.816C63.7831 31.816 64.5671 31.688 65.2711 31.432C65.9751 31.144 66.8231 30.696 67.8151 30.088L71.1271 34.792C68.5991 36.808 65.7351 37.816 62.5351 37.816C59.9431 37.816 57.7031 37.272 55.8151 36.184C53.9271 35.064 52.4711 33.512 51.4471 31.528C50.4231 29.512 49.9111 27.16 49.9111 24.472C49.9111 21.784 50.4231 19.4 51.4471 17.32C52.4711 15.24 53.9271 13.624 55.8151 12.472C57.7031 11.288 59.8951 10.696 62.3911 10.696Z" fill="#001C00"/>
<path d="M94.1071 29.608C94.1071 30.568 94.2351 31.272 94.4911 31.72C94.7791 32.168 95.2271 32.504 95.8351 32.728L94.2511 37.672C92.6831 37.544 91.4031 37.208 90.4111 36.664C89.4191 36.088 88.6511 35.192 88.1071 33.976C86.4431 36.536 83.8831 37.816 80.4271 37.816C77.8991 37.816 75.8831 37.08 74.3791 35.608C72.8751 34.136 72.1231 32.216 72.1231 29.848C72.1231 27.064 73.1471 24.936 75.1951 23.464C77.2431 21.992 80.2031 21.256 84.0751 21.256H86.6671V20.152C86.6671 18.648 86.3471 17.624 85.7071 17.08C85.0671 16.504 83.9471 16.216 82.3471 16.216C81.5151 16.216 80.5071 16.344 79.3231 16.6C78.1391 16.824 76.9231 17.144 75.6751 17.56L73.9471 12.568C75.5471 11.96 77.1791 11.496 78.8431 11.176C80.5391 10.856 82.1071 10.696 83.5471 10.696C87.1951 10.696 89.8671 11.448 91.5631 12.952C93.2591 14.456 94.1071 16.712 94.1071 19.72V29.608ZM82.6351 32.392C84.3631 32.392 85.7071 31.576 86.6671 29.944V25.432H84.7951C83.0671 25.432 81.7711 25.736 80.9071 26.344C80.0751 26.952 79.6591 27.896 79.6591 29.176C79.6591 30.2 79.9151 31 80.4271 31.576C80.9711 32.12 81.7071 32.392 82.6351 32.392Z" fill="#001C00"/>
<path d="M108.655 10.696C110.479 10.696 112.191 10.968 113.791 11.512C115.391 12.056 116.799 12.824 118.015 13.816L115.231 18.088C113.151 16.776 111.055 16.12 108.943 16.12C107.951 16.12 107.183 16.296 106.639 16.648C106.127 16.968 105.871 17.432 105.871 18.04C105.871 18.52 105.983 18.92 106.207 19.24C106.463 19.528 106.959 19.832 107.695 20.152C108.431 20.472 109.567 20.856 111.103 21.304C113.759 22.072 115.727 23.08 117.007 24.328C118.319 25.544 118.975 27.24 118.975 29.416C118.975 31.144 118.479 32.648 117.487 33.928C116.495 35.176 115.135 36.136 113.407 36.808C111.679 37.48 109.759 37.816 107.647 37.816C105.503 37.816 103.503 37.48 101.647 36.808C99.8232 36.136 98.2712 35.208 96.9912 34.024L100.687 29.896C102.831 31.56 105.087 32.392 107.455 32.392C108.607 32.392 109.503 32.184 110.143 31.768C110.815 31.352 111.151 30.76 111.151 29.992C111.151 29.384 111.023 28.904 110.767 28.552C110.511 28.2 110.015 27.88 109.279 27.592C108.543 27.272 107.375 26.888 105.775 26.44C103.247 25.704 101.359 24.68 100.111 23.368C98.8632 22.056 98.2392 20.424 98.2392 18.472C98.2392 17 98.6552 15.688 99.4872 14.536C100.351 13.352 101.567 12.424 103.135 11.752C104.735 11.048 106.575 10.696 108.655 10.696Z" fill="#001C00"/>
<path d="M157.169 3.736L156.401 9.78399H148.193V37H140.321V9.78399H131.729V3.736H157.169Z" fill="#001C00"/>
<path d="M175.123 10.696C177.331 10.696 179.059 11.368 180.307 12.712C181.555 14.056 182.179 15.944 182.179 18.376V37H174.595V19.672C174.595 18.392 174.387 17.512 173.971 17.032C173.555 16.52 172.963 16.264 172.195 16.264C170.659 16.264 169.187 17.352 167.779 19.528V37H160.195V1.38399L167.779 0.615995V14.248C168.835 13.064 169.955 12.184 171.139 11.608C172.323 11 173.651 10.696 175.123 10.696Z" fill="#001C00"/>
<path d="M210.122 23.752C210.122 24.808 210.074 25.72 209.978 26.488H194.186C194.442 28.632 195.05 30.136 196.01 31C196.97 31.864 198.298 32.296 199.994 32.296C201.018 32.296 202.01 32.12 202.97 31.768C203.93 31.384 204.97 30.808 206.09 30.04L209.21 34.264C206.234 36.632 202.922 37.816 199.274 37.816C195.146 37.816 191.978 36.6 189.77 34.168C187.562 31.736 186.458 28.472 186.458 24.376C186.458 21.784 186.922 19.464 187.85 17.416C188.778 15.336 190.138 13.704 191.93 12.52C193.722 11.304 195.866 10.696 198.362 10.696C202.042 10.696 204.922 11.848 207.002 14.152C209.082 16.456 210.122 19.656 210.122 23.752ZM202.682 21.592C202.618 17.688 201.242 15.736 198.554 15.736C197.242 15.736 196.218 16.216 195.482 17.176C194.778 18.136 194.346 19.72 194.186 21.928H202.682V21.592Z" fill="#001C00"/>
<path d="M225.422 10.696C229.326 10.696 232.382 11.896 234.59 14.296C236.798 16.664 237.902 19.992 237.902 24.28C237.902 27 237.39 29.384 236.366 31.432C235.374 33.448 233.934 35.016 232.046 36.136C230.19 37.256 227.982 37.816 225.422 37.816C221.55 37.816 218.494 36.632 216.254 34.264C214.046 31.864 212.942 28.52 212.942 24.232C212.942 21.512 213.438 19.144 214.43 17.128C215.454 15.08 216.894 13.496 218.75 12.376C220.638 11.256 222.862 10.696 225.422 10.696ZM225.422 16.264C223.886 16.264 222.734 16.92 221.966 18.232C221.198 19.512 220.814 21.512 220.814 24.232C220.814 27.016 221.182 29.048 221.918 30.328C222.686 31.608 223.854 32.248 225.422 32.248C226.958 32.248 228.11 31.608 228.878 30.328C229.646 29.016 230.03 27 230.03 24.28C230.03 21.496 229.646 19.464 228.878 18.184C228.142 16.904 226.99 16.264 225.422 16.264Z" fill="#001C00"/>
<path d="M265.262 1.38399V37H258.542L258.158 34.024C256.366 36.552 253.95 37.816 250.91 37.816C247.742 37.816 245.326 36.6 243.662 34.168C242.03 31.736 241.214 28.408 241.214 24.184C241.214 21.592 241.646 19.272 242.51 17.224C243.374 15.176 244.59 13.576 246.158 12.424C247.758 11.272 249.582 10.696 251.63 10.696C254.062 10.696 256.078 11.496 257.678 13.096V0.567993L265.262 1.38399ZM253.262 32.248C255.022 32.248 256.494 31.288 257.678 29.368V18.376C257.07 17.64 256.446 17.096 255.806 16.744C255.198 16.392 254.494 16.216 253.694 16.216C252.286 16.216 251.166 16.872 250.334 18.184C249.502 19.496 249.086 21.512 249.086 24.232C249.086 27.208 249.438 29.288 250.142 30.472C250.878 31.656 251.918 32.248 253.262 32.248Z" fill="#001C00"/>
<path d="M282.235 10.696C286.139 10.696 289.195 11.896 291.403 14.296C293.611 16.664 294.715 19.992 294.715 24.28C294.715 27 294.203 29.384 293.179 31.432C292.187 33.448 290.747 35.016 288.859 36.136C287.003 37.256 284.795 37.816 282.235 37.816C278.363 37.816 275.307 36.632 273.067 34.264C270.859 31.864 269.755 28.52 269.755 24.232C269.755 21.512 270.251 19.144 271.243 17.128C272.267 15.08 273.707 13.496 275.563 12.376C277.451 11.256 279.675 10.696 282.235 10.696ZM282.235 16.264C280.699 16.264 279.547 16.92 278.779 18.232C278.011 19.512 277.627 21.512 277.627 24.232C277.627 27.016 277.995 29.048 278.731 30.328C279.499 31.608 280.667 32.248 282.235 32.248C283.771 32.248 284.923 31.608 285.691 30.328C286.459 29.016 286.843 27 286.843 24.28C286.843 21.496 286.459 19.464 285.691 18.184C284.955 16.904 283.803 16.264 282.235 16.264Z" fill="#001C00"/>
<path d="M313.05 10.792C313.978 10.792 314.826 10.904 315.594 11.128L314.394 18.472C313.434 18.248 312.666 18.136 312.09 18.136C310.586 18.136 309.434 18.664 308.634 19.72C307.866 20.744 307.258 22.296 306.81 24.376V37H299.226V11.512H305.85L306.474 16.456C307.05 14.696 307.914 13.32 309.066 12.328C310.25 11.304 311.578 10.792 313.05 10.792Z" fill="#001C00"/>
<path d="M328.079 10.696C331.983 10.696 335.039 11.896 337.247 14.296C339.455 16.664 340.559 19.992 340.559 24.28C340.559 27 340.047 29.384 339.023 31.432C338.031 33.448 336.591 35.016 334.703 36.136C332.847 37.256 330.639 37.816 328.079 37.816C324.207 37.816 321.151 36.632 318.911 34.264C316.703 31.864 315.599 28.52 315.599 24.232C315.599 21.512 316.095 19.144 317.087 17.128C318.111 15.08 319.551 13.496 321.407 12.376C323.295 11.256 325.519 10.696 328.079 10.696ZM328.079 16.264C326.543 16.264 325.391 16.92 324.623 18.232C323.855 19.512 323.471 21.512 323.471 24.232C323.471 27.016 323.839 29.048 324.575 30.328C325.343 31.608 326.511 32.248 328.079 32.248C329.615 32.248 330.767 31.608 331.535 30.328C332.303 29.016 332.687 27 332.687 24.28C332.687 21.496 332.303 19.464 331.535 18.184C330.799 16.904 329.647 16.264 328.079 16.264Z" fill="#001C00"/>
</svg>
