<svg width="1156" height="38" viewBox="0 0 1156 38" fill="none" xmlns="http://www.w3.org/2000/svg">
<path d="M7.99212 3.736V30.76H20.9521L20.1361 37H0.120117V3.736H7.99212Z" fill="black"/>
<path d="M45.3864 37H38.8104L38.4744 33.784C36.6184 36.472 34.0424 37.816 30.7464 37.816C28.4104 37.816 26.6344 37.112 25.4184 35.704C24.2344 34.296 23.6424 32.328 23.6424 29.8V11.512H31.2264V28.84C31.2264 30.088 31.4184 30.968 31.8024 31.48C32.2184 31.96 32.8424 32.2 33.6744 32.2C35.2744 32.2 36.6504 31.208 37.8024 29.224V11.512H45.3864V37Z" fill="black"/>
<path d="M62.3911 10.696C64.1511 10.696 65.7351 10.952 67.1431 11.464C68.5511 11.976 69.8791 12.76 71.1271 13.816L67.8631 18.328C66.2631 17.112 64.6471 16.504 63.0151 16.504C61.3191 16.504 60.0391 17.128 59.1751 18.376C58.3111 19.624 57.8791 21.64 57.8791 24.424C57.8791 27.112 58.3111 29.016 59.1751 30.136C60.0391 31.256 61.2871 31.816 62.9191 31.816C63.7831 31.816 64.5671 31.688 65.2711 31.432C65.9751 31.144 66.8231 30.696 67.8151 30.088L71.1271 34.792C68.5991 36.808 65.7351 37.816 62.5351 37.816C59.9431 37.816 57.7031 37.272 55.8151 36.184C53.9271 35.064 52.4711 33.512 51.4471 31.528C50.4231 29.512 49.9111 27.16 49.9111 24.472C49.9111 21.784 50.4231 19.4 51.4471 17.32C52.4711 15.24 53.9271 13.624 55.8151 12.472C57.7031 11.288 59.8951 10.696 62.3911 10.696Z" fill="black"/>
<path d="M94.1071 29.608C94.1071 30.568 94.2351 31.272 94.4911 31.72C94.7791 32.168 95.2271 32.504 95.8351 32.728L94.2511 37.672C92.6831 37.544 91.4031 37.208 90.4111 36.664C89.4191 36.088 88.6511 35.192 88.1071 33.976C86.4431 36.536 83.8831 37.816 80.4271 37.816C77.8991 37.816 75.8831 37.08 74.3791 35.608C72.8751 34.136 72.1231 32.216 72.1231 29.848C72.1231 27.064 73.1471 24.936 75.1951 23.464C77.2431 21.992 80.2031 21.256 84.0751 21.256H86.6671V20.152C86.6671 18.648 86.3471 17.624 85.7071 17.08C85.0671 16.504 83.9471 16.216 82.3471 16.216C81.5151 16.216 80.5071 16.344 79.3231 16.6C78.1391 16.824 76.9231 17.144 75.6751 17.56L73.9471 12.568C75.5471 11.96 77.1791 11.496 78.8431 11.176C80.5391 10.856 82.1071 10.696 83.5471 10.696C87.1951 10.696 89.8671 11.448 91.5631 12.952C93.2591 14.456 94.1071 16.712 94.1071 19.72V29.608ZM82.6351 32.392C84.3631 32.392 85.7071 31.576 86.6671 29.944V25.432H84.7951C83.0671 25.432 81.7711 25.736 80.9071 26.344C80.0751 26.952 79.6591 27.896 79.6591 29.176C79.6591 30.2 79.9151 31 80.4271 31.576C80.9711 32.12 81.7071 32.392 82.6351 32.392Z" fill="black"/>
<path d="M108.655 10.696C110.479 10.696 112.191 10.968 113.791 11.512C115.391 12.056 116.799 12.824 118.015 13.816L115.231 18.088C113.151 16.776 111.055 16.12 108.943 16.12C107.951 16.12 107.183 16.296 106.639 16.648C106.127 16.968 105.871 17.432 105.871 18.04C105.871 18.52 105.983 18.92 106.207 19.24C106.463 19.528 106.959 19.832 107.695 20.152C108.431 20.472 109.567 20.856 111.103 21.304C113.759 22.072 115.727 23.08 117.007 24.328C118.319 25.544 118.975 27.24 118.975 29.416C118.975 31.144 118.479 32.648 117.487 33.928C116.495 35.176 115.135 36.136 113.407 36.808C111.679 37.48 109.759 37.816 107.647 37.816C105.503 37.816 103.503 37.48 101.647 36.808C99.8232 36.136 98.2712 35.208 96.9912 34.024L100.687 29.896C102.831 31.56 105.087 32.392 107.455 32.392C108.607 32.392 109.503 32.184 110.143 31.768C110.815 31.352 111.151 30.76 111.151 29.992C111.151 29.384 111.023 28.904 110.767 28.552C110.511 28.2 110.015 27.88 109.279 27.592C108.543 27.272 107.375 26.888 105.775 26.44C103.247 25.704 101.359 24.68 100.111 23.368C98.8632 22.056 98.2392 20.424 98.2392 18.472C98.2392 17 98.6552 15.688 99.4872 14.536C100.351 13.352 101.567 12.424 103.135 11.752C104.735 11.048 106.575 10.696 108.655 10.696Z" fill="black"/>
<path d="M157.169 3.736L156.401 9.78399H148.193V37H140.321V9.78399H131.729V3.736H157.169Z" fill="black"/>
<path d="M175.123 10.696C177.331 10.696 179.059 11.368 180.307 12.712C181.555 14.056 182.179 15.944 182.179 18.376V37H174.595V19.672C174.595 18.392 174.387 17.512 173.971 17.032C173.555 16.52 172.963 16.264 172.195 16.264C170.659 16.264 169.187 17.352 167.779 19.528V37H160.195V1.38399L167.779 0.615995V14.248C168.835 13.064 169.955 12.184 171.139 11.608C172.323 11 173.651 10.696 175.123 10.696Z" fill="black"/>
<path d="M210.122 23.752C210.122 24.808 210.074 25.72 209.978 26.488H194.186C194.442 28.632 195.05 30.136 196.01 31C196.97 31.864 198.298 32.296 199.994 32.296C201.018 32.296 202.01 32.12 202.97 31.768C203.93 31.384 204.97 30.808 206.09 30.04L209.21 34.264C206.234 36.632 202.922 37.816 199.274 37.816C195.146 37.816 191.978 36.6 189.77 34.168C187.562 31.736 186.458 28.472 186.458 24.376C186.458 21.784 186.922 19.464 187.85 17.416C188.778 15.336 190.138 13.704 191.93 12.52C193.722 11.304 195.866 10.696 198.362 10.696C202.042 10.696 204.922 11.848 207.002 14.152C209.082 16.456 210.122 19.656 210.122 23.752ZM202.682 21.592C202.618 17.688 201.242 15.736 198.554 15.736C197.242 15.736 196.218 16.216 195.482 17.176C194.778 18.136 194.346 19.72 194.186 21.928H202.682V21.592Z" fill="black"/>
<path d="M225.422 10.696C229.326 10.696 232.382 11.896 234.59 14.296C236.798 16.664 237.902 19.992 237.902 24.28C237.902 27 237.39 29.384 236.366 31.432C235.374 33.448 233.934 35.016 232.046 36.136C230.19 37.256 227.982 37.816 225.422 37.816C221.55 37.816 218.494 36.632 216.254 34.264C214.046 31.864 212.942 28.52 212.942 24.232C212.942 21.512 213.438 19.144 214.43 17.128C215.454 15.08 216.894 13.496 218.75 12.376C220.638 11.256 222.862 10.696 225.422 10.696ZM225.422 16.264C223.886 16.264 222.734 16.92 221.966 18.232C221.198 19.512 220.814 21.512 220.814 24.232C220.814 27.016 221.182 29.048 221.918 30.328C222.686 31.608 223.854 32.248 225.422 32.248C226.958 32.248 228.11 31.608 228.878 30.328C229.646 29.016 230.03 27 230.03 24.28C230.03 21.496 229.646 19.464 228.878 18.184C228.142 16.904 226.99 16.264 225.422 16.264Z" fill="black"/>
<path d="M265.262 1.38399V37H258.542L258.158 34.024C256.366 36.552 253.95 37.816 250.91 37.816C247.742 37.816 245.326 36.6 243.662 34.168C242.03 31.736 241.214 28.408 241.214 24.184C241.214 21.592 241.646 19.272 242.51 17.224C243.374 15.176 244.59 13.576 246.158 12.424C247.758 11.272 249.582 10.696 251.63 10.696C254.062 10.696 256.078 11.496 257.678 13.096V0.567993L265.262 1.38399ZM253.262 32.248C255.022 32.248 256.494 31.288 257.678 29.368V18.376C257.07 17.64 256.446 17.096 255.806 16.744C255.198 16.392 254.494 16.216 253.694 16.216C252.286 16.216 251.166 16.872 250.334 18.184C249.502 19.496 249.086 21.512 249.086 24.232C249.086 27.208 249.438 29.288 250.142 30.472C250.878 31.656 251.918 32.248 253.262 32.248Z" fill="black"/>
<path d="M282.235 10.696C286.139 10.696 289.195 11.896 291.403 14.296C293.611 16.664 294.715 19.992 294.715 24.28C294.715 27 294.203 29.384 293.179 31.432C292.187 33.448 290.747 35.016 288.859 36.136C287.003 37.256 284.795 37.816 282.235 37.816C278.363 37.816 275.307 36.632 273.067 34.264C270.859 31.864 269.755 28.52 269.755 24.232C269.755 21.512 270.251 19.144 271.243 17.128C272.267 15.08 273.707 13.496 275.563 12.376C277.451 11.256 279.675 10.696 282.235 10.696ZM282.235 16.264C280.699 16.264 279.547 16.92 278.779 18.232C278.011 19.512 277.627 21.512 277.627 24.232C277.627 27.016 277.995 29.048 278.731 30.328C279.499 31.608 280.667 32.248 282.235 32.248C283.771 32.248 284.923 31.608 285.691 30.328C286.459 29.016 286.843 27 286.843 24.28C286.843 21.496 286.459 19.464 285.691 18.184C284.955 16.904 283.803 16.264 282.235 16.264Z" fill="black"/>
<path d="M313.05 10.792C313.978 10.792 314.826 10.904 315.594 11.128L314.394 18.472C313.434 18.248 312.666 18.136 312.09 18.136C310.586 18.136 309.434 18.664 308.634 19.72C307.866 20.744 307.258 22.296 306.81 24.376V37H299.226V11.512H305.85L306.474 16.456C307.05 14.696 307.914 13.32 309.066 12.328C310.25 11.304 311.578 10.792 313.05 10.792Z" fill="black"/>
<path d="M328.079 10.696C331.983 10.696 335.039 11.896 337.247 14.296C339.455 16.664 340.559 19.992 340.559 24.28C340.559 27 340.047 29.384 339.023 31.432C338.031 33.448 336.591 35.016 334.703 36.136C332.847 37.256 330.639 37.816 328.079 37.816C324.207 37.816 321.151 36.632 318.911 34.264C316.703 31.864 315.599 28.52 315.599 24.232C315.599 21.512 316.095 19.144 317.087 17.128C318.111 15.08 319.551 13.496 321.407 12.376C323.295 11.256 325.519 10.696 328.079 10.696ZM328.079 16.264C326.543 16.264 325.391 16.92 324.623 18.232C323.855 19.512 323.471 21.512 323.471 24.232C323.471 27.016 323.839 29.048 324.575 30.328C325.343 31.608 326.511 32.248 328.079 32.248C329.615 32.248 330.767 31.608 331.535 30.328C332.303 29.016 332.687 27 332.687 24.28C332.687 21.496 332.303 19.464 331.535 18.184C330.799 16.904 329.647 16.264 328.079 16.264Z" fill="black"/>
<path d="M826.514 14.598L826.316 15.966H821.51V20.016H825.686V21.384H821.51V25.632H826.658V27H819.8V14.598H826.514Z" fill="#001C00"/>
<path d="M832.979 21.924L836.273 27H834.275L831.953 22.986L829.595 27H827.723L831.035 21.996L828.101 17.514H830.045L832.025 20.988L834.023 17.514H835.895L832.979 21.924Z" fill="#001C00"/>
<path d="M842.435 17.298C843.647 17.298 844.535 17.73 845.099 18.594C845.663 19.458 845.945 20.676 845.945 22.248C845.945 23.736 845.621 24.936 844.973 25.848C844.325 26.76 843.407 27.216 842.219 27.216C841.163 27.216 840.335 26.856 839.735 26.136V30.636L838.079 30.834V17.514H839.501L839.627 18.792C839.975 18.312 840.395 17.946 840.887 17.694C841.379 17.43 841.895 17.298 842.435 17.298ZM841.823 25.866C843.383 25.866 844.163 24.66 844.163 22.248C844.163 19.824 843.449 18.612 842.021 18.612C841.553 18.612 841.127 18.75 840.743 19.026C840.359 19.302 840.023 19.656 839.735 20.088V24.714C839.975 25.086 840.275 25.374 840.635 25.578C840.995 25.77 841.391 25.866 841.823 25.866Z" fill="#001C00"/>
<path d="M855.931 21.978C855.931 22.254 855.919 22.536 855.895 22.824H849.847C849.919 23.868 850.183 24.636 850.639 25.128C851.095 25.62 851.683 25.866 852.403 25.866C852.859 25.866 853.279 25.8 853.663 25.668C854.047 25.536 854.449 25.326 854.869 25.038L855.589 26.028C854.581 26.82 853.477 27.216 852.277 27.216C850.957 27.216 849.925 26.784 849.181 25.92C848.449 25.056 848.083 23.868 848.083 22.356C848.083 21.372 848.239 20.502 848.551 19.746C848.875 18.978 849.331 18.378 849.919 17.946C850.519 17.514 851.221 17.298 852.025 17.298C853.285 17.298 854.251 17.712 854.923 18.54C855.595 19.368 855.931 20.514 855.931 21.978ZM854.293 21.492C854.293 20.556 854.107 19.842 853.735 19.35C853.363 18.858 852.805 18.612 852.061 18.612C850.705 18.612 849.967 19.608 849.847 21.6H854.293V21.492Z" fill="#001C00"/>
<path d="M862.697 17.298C863.033 17.298 863.345 17.334 863.633 17.406L863.327 19.026C863.039 18.954 862.763 18.918 862.499 18.918C861.911 18.918 861.437 19.134 861.077 19.566C860.717 19.998 860.435 20.67 860.231 21.582V27H858.575V17.514H859.997L860.159 19.44C860.411 18.732 860.753 18.198 861.185 17.838C861.617 17.478 862.121 17.298 862.697 17.298Z" fill="#001C00"/>
<path d="M867.175 17.514V27H865.519V17.514H867.175ZM866.329 12.96C866.677 12.96 866.959 13.068 867.175 13.284C867.391 13.5 867.499 13.77 867.499 14.094C867.499 14.418 867.391 14.688 867.175 14.904C866.959 15.108 866.677 15.21 866.329 15.21C865.993 15.21 865.717 15.108 865.501 14.904C865.285 14.688 865.177 14.418 865.177 14.094C865.177 13.77 865.285 13.5 865.501 13.284C865.717 13.068 865.993 12.96 866.329 12.96Z" fill="#001C00"/>
<path d="M877.763 21.978C877.763 22.254 877.751 22.536 877.727 22.824H871.679C871.751 23.868 872.015 24.636 872.471 25.128C872.927 25.62 873.515 25.866 874.235 25.866C874.691 25.866 875.111 25.8 875.495 25.668C875.879 25.536 876.281 25.326 876.701 25.038L877.421 26.028C876.413 26.82 875.309 27.216 874.109 27.216C872.789 27.216 871.757 26.784 871.013 25.92C870.281 25.056 869.915 23.868 869.915 22.356C869.915 21.372 870.071 20.502 870.383 19.746C870.707 18.978 871.163 18.378 871.751 17.946C872.351 17.514 873.053 17.298 873.857 17.298C875.117 17.298 876.083 17.712 876.755 18.54C877.427 19.368 877.763 20.514 877.763 21.978ZM876.125 21.492C876.125 20.556 875.939 19.842 875.567 19.35C875.195 18.858 874.637 18.612 873.893 18.612C872.537 18.612 871.799 19.608 871.679 21.6H876.125V21.492ZM871.625 15.588L870.923 14.778L873.353 12.744H874.451L876.899 14.778L876.179 15.588L873.911 14.076L871.625 15.588Z" fill="#001C00"/>
<path d="M884.871 17.298C885.735 17.298 886.407 17.556 886.887 18.072C887.379 18.588 887.625 19.296 887.625 20.196V27H885.969V20.43C885.969 19.758 885.843 19.284 885.591 19.008C885.339 18.732 884.967 18.594 884.475 18.594C883.971 18.594 883.527 18.738 883.143 19.026C882.759 19.314 882.399 19.728 882.063 20.268V27H880.407V17.514H881.829L881.973 18.918C882.309 18.414 882.723 18.018 883.215 17.73C883.719 17.442 884.271 17.298 884.871 17.298Z" fill="#001C00"/>
<path d="M894.41 17.298C894.974 17.298 895.49 17.382 895.958 17.55C896.426 17.706 896.876 17.964 897.308 18.324L896.516 19.368C896.18 19.128 895.85 18.954 895.526 18.846C895.214 18.726 894.866 18.666 894.482 18.666C893.714 18.666 893.114 18.972 892.682 19.584C892.262 20.196 892.052 21.102 892.052 22.302C892.052 23.502 892.262 24.39 892.682 24.966C893.102 25.53 893.702 25.812 894.482 25.812C894.854 25.812 895.196 25.758 895.508 25.65C895.82 25.53 896.168 25.344 896.552 25.092L897.308 26.172C896.444 26.868 895.478 27.216 894.41 27.216C893.126 27.216 892.112 26.784 891.368 25.92C890.636 25.056 890.27 23.862 890.27 22.338C890.27 21.33 890.438 20.448 890.774 19.692C891.11 18.936 891.584 18.348 892.196 17.928C892.82 17.508 893.558 17.298 894.41 17.298Z" fill="#001C00"/>
<path d="M901.206 17.514V27H899.55V17.514H901.206ZM900.36 12.96C900.708 12.96 900.99 13.068 901.206 13.284C901.422 13.5 901.53 13.77 901.53 14.094C901.53 14.418 901.422 14.688 901.206 14.904C900.99 15.108 900.708 15.21 900.36 15.21C900.024 15.21 899.748 15.108 899.532 14.904C899.316 14.688 899.208 14.418 899.208 14.094C899.208 13.77 899.316 13.5 899.532 13.284C899.748 13.068 900.024 12.96 900.36 12.96Z" fill="#001C00"/>
<path d="M911.02 24.786C911.02 25.17 911.086 25.458 911.218 25.65C911.35 25.83 911.548 25.968 911.812 26.064L911.434 27.216C910.942 27.156 910.546 27.018 910.246 26.802C909.946 26.586 909.724 26.25 909.58 25.794C908.944 26.742 908.002 27.216 906.754 27.216C905.818 27.216 905.08 26.952 904.54 26.424C904 25.896 903.73 25.206 903.73 24.354C903.73 23.346 904.09 22.572 904.81 22.032C905.542 21.492 906.574 21.222 907.906 21.222H909.364V20.52C909.364 19.848 909.202 19.368 908.878 19.08C908.554 18.792 908.056 18.648 907.384 18.648C906.688 18.648 905.836 18.816 904.828 19.152L904.414 17.946C905.59 17.514 906.682 17.298 907.69 17.298C908.806 17.298 909.64 17.574 910.192 18.126C910.744 18.666 911.02 19.44 911.02 20.448V24.786ZM907.132 25.974C908.08 25.974 908.824 25.482 909.364 24.498V22.32H908.122C906.37 22.32 905.494 22.968 905.494 24.264C905.494 24.828 905.632 25.254 905.908 25.542C906.184 25.83 906.592 25.974 907.132 25.974Z" fill="#001C00"/>
<path d="M965.8 27V14.598H972.388L972.19 15.966H967.51V20.196H971.56V21.546H967.51V27H965.8Z" fill="#001C00"/>
<path d="M977.483 17.298C978.815 17.298 979.847 17.742 980.579 18.63C981.323 19.518 981.695 20.724 981.695 22.248C981.695 23.232 981.527 24.102 981.191 24.858C980.855 25.602 980.369 26.184 979.733 26.604C979.097 27.012 978.341 27.216 977.465 27.216C976.133 27.216 975.095 26.772 974.351 25.884C973.607 24.996 973.235 23.79 973.235 22.266C973.235 21.282 973.403 20.418 973.739 19.674C974.075 18.918 974.561 18.336 975.197 17.928C975.833 17.508 976.595 17.298 977.483 17.298ZM977.483 18.63C975.839 18.63 975.017 19.842 975.017 22.266C975.017 24.678 975.833 25.884 977.465 25.884C979.097 25.884 979.913 24.672 979.913 22.248C979.913 19.836 979.103 18.63 977.483 18.63Z" fill="#001C00"/>
<path d="M988.553 17.298C988.889 17.298 989.201 17.334 989.489 17.406L989.183 19.026C988.895 18.954 988.619 18.918 988.355 18.918C987.767 18.918 987.293 19.134 986.933 19.566C986.573 19.998 986.291 20.67 986.087 21.582V27H984.431V17.514H985.853L986.015 19.44C986.267 18.732 986.609 18.198 987.041 17.838C987.473 17.478 987.977 17.298 988.553 17.298Z" fill="#001C00"/>
<path d="M1000.9 17.298C1001.68 17.298 1002.3 17.562 1002.77 18.09C1003.24 18.606 1003.47 19.308 1003.47 20.196V27H1001.81V20.43C1001.81 19.206 1001.37 18.594 1000.48 18.594C1000.01 18.594 999.618 18.732 999.294 19.008C998.97 19.272 998.622 19.692 998.25 20.268V27H996.594V20.43C996.594 19.206 996.15 18.594 995.262 18.594C994.782 18.594 994.38 18.732 994.056 19.008C993.732 19.284 993.39 19.704 993.03 20.268V27H991.374V17.514H992.796L992.94 18.9C993.648 17.832 994.56 17.298 995.676 17.298C996.264 17.298 996.762 17.448 997.17 17.748C997.59 18.048 997.89 18.468 998.07 19.008C998.442 18.456 998.85 18.036 999.294 17.748C999.75 17.448 1000.28 17.298 1000.9 17.298Z" fill="#001C00"/>
<path d="M1013.2 24.786C1013.2 25.17 1013.26 25.458 1013.4 25.65C1013.53 25.83 1013.73 25.968 1013.99 26.064L1013.61 27.216C1013.12 27.156 1012.72 27.018 1012.42 26.802C1012.12 26.586 1011.9 26.25 1011.76 25.794C1011.12 26.742 1010.18 27.216 1008.93 27.216C1008 27.216 1007.26 26.952 1006.72 26.424C1006.18 25.896 1005.91 25.206 1005.91 24.354C1005.91 23.346 1006.27 22.572 1006.99 22.032C1007.72 21.492 1008.75 21.222 1010.08 21.222H1011.54V20.52C1011.54 19.848 1011.38 19.368 1011.06 19.08C1010.73 18.792 1010.23 18.648 1009.56 18.648C1008.87 18.648 1008.01 18.816 1007.01 19.152L1006.59 17.946C1007.77 17.514 1008.86 17.298 1009.87 17.298C1010.98 17.298 1011.82 17.574 1012.37 18.126C1012.92 18.666 1013.2 19.44 1013.2 20.448V24.786ZM1009.31 25.974C1010.26 25.974 1011 25.482 1011.54 24.498V22.32H1010.3C1008.55 22.32 1007.67 22.968 1007.67 24.264C1007.67 24.828 1007.81 25.254 1008.09 25.542C1008.36 25.83 1008.77 25.974 1009.31 25.974Z" fill="#001C00"/>
<path d="M1022.95 26.172C1022.2 26.784 1021.36 27.126 1020.43 27.198V28.008C1021.01 28.056 1021.43 28.218 1021.69 28.494C1021.97 28.782 1022.11 29.13 1022.11 29.538C1022.11 30.114 1021.9 30.558 1021.48 30.87C1021.06 31.182 1020.52 31.338 1019.87 31.338C1019.54 31.338 1019.23 31.296 1018.94 31.212C1018.65 31.14 1018.42 31.038 1018.24 30.906L1018.69 29.97C1019.05 30.162 1019.42 30.258 1019.82 30.258C1020.1 30.258 1020.31 30.198 1020.47 30.078C1020.64 29.97 1020.72 29.79 1020.72 29.538C1020.72 29.286 1020.59 29.094 1020.34 28.962C1020.09 28.842 1019.68 28.782 1019.12 28.782L1019.32 27.162C1018.25 26.994 1017.41 26.49 1016.81 25.65C1016.21 24.81 1015.91 23.706 1015.91 22.338C1015.91 21.33 1016.08 20.448 1016.42 19.692C1016.75 18.936 1017.23 18.348 1017.84 17.928C1018.46 17.508 1019.2 17.298 1020.05 17.298C1020.62 17.298 1021.13 17.382 1021.6 17.55C1022.07 17.706 1022.52 17.964 1022.95 18.324L1022.16 19.368C1021.82 19.128 1021.49 18.954 1021.17 18.846C1020.86 18.726 1020.51 18.666 1020.13 18.666C1019.36 18.666 1018.76 18.972 1018.33 19.584C1017.91 20.196 1017.7 21.102 1017.7 22.302C1017.7 23.502 1017.91 24.39 1018.33 24.966C1018.75 25.53 1019.35 25.812 1020.13 25.812C1020.5 25.812 1020.84 25.758 1021.15 25.65C1021.46 25.53 1021.81 25.344 1022.2 25.092L1022.95 26.172Z" fill="#001C00"/>
<path d="M1031.41 24.786C1031.41 25.17 1031.47 25.458 1031.61 25.65C1031.74 25.83 1031.94 25.968 1032.2 26.064L1031.82 27.216C1031.33 27.156 1030.93 27.018 1030.63 26.802C1030.33 26.586 1030.11 26.25 1029.97 25.794C1029.33 26.742 1028.39 27.216 1027.14 27.216C1026.21 27.216 1025.47 26.952 1024.93 26.424C1024.39 25.896 1024.12 25.206 1024.12 24.354C1024.12 23.346 1024.48 22.572 1025.2 22.032C1025.93 21.492 1026.96 21.222 1028.29 21.222H1029.75V20.52C1029.75 19.848 1029.59 19.368 1029.27 19.08C1028.94 18.792 1028.44 18.648 1027.77 18.648C1027.08 18.648 1026.22 18.816 1025.22 19.152L1024.8 17.946C1025.98 17.514 1027.07 17.298 1028.08 17.298C1029.19 17.298 1030.03 17.574 1030.58 18.126C1031.13 18.666 1031.41 19.44 1031.41 20.448V24.786ZM1027.52 25.974C1028.47 25.974 1029.21 25.482 1029.75 24.498V22.32H1028.51C1026.76 22.32 1025.88 22.968 1025.88 24.264C1025.88 24.828 1026.02 25.254 1026.3 25.542C1026.57 25.83 1026.98 25.974 1027.52 25.974ZM1029.05 15.192C1028.82 15.192 1028.61 15.15 1028.42 15.066C1028.24 14.982 1028.04 14.862 1027.81 14.706C1027.63 14.574 1027.47 14.478 1027.34 14.418C1027.22 14.358 1027.09 14.328 1026.96 14.328C1026.77 14.328 1026.6 14.394 1026.46 14.526C1026.31 14.658 1026.16 14.868 1026.01 15.156L1025 14.652C1025.23 14.172 1025.5 13.788 1025.83 13.5C1026.16 13.212 1026.54 13.068 1026.96 13.068C1027.21 13.068 1027.43 13.116 1027.61 13.212C1027.79 13.296 1027.99 13.416 1028.22 13.572C1028.26 13.596 1028.33 13.644 1028.44 13.716C1028.56 13.788 1028.67 13.842 1028.76 13.878C1028.86 13.914 1028.95 13.932 1029.05 13.932C1029.23 13.932 1029.39 13.872 1029.54 13.752C1029.68 13.62 1029.84 13.416 1030 13.14L1031.01 13.644C1030.78 14.148 1030.5 14.532 1030.17 14.796C1029.83 15.06 1029.46 15.192 1029.05 15.192Z" fill="#001C00"/>
<path d="M1038.37 17.298C1039.71 17.298 1040.74 17.742 1041.47 18.63C1042.21 19.518 1042.59 20.724 1042.59 22.248C1042.59 23.232 1042.42 24.102 1042.08 24.858C1041.75 25.602 1041.26 26.184 1040.62 26.604C1039.99 27.012 1039.23 27.216 1038.36 27.216C1037.02 27.216 1035.99 26.772 1035.24 25.884C1034.5 24.996 1034.13 23.79 1034.13 22.266C1034.13 21.282 1034.29 20.418 1034.63 19.674C1034.97 18.918 1035.45 18.336 1036.09 17.928C1036.72 17.508 1037.49 17.298 1038.37 17.298ZM1038.37 18.63C1036.73 18.63 1035.91 19.842 1035.91 22.266C1035.91 24.678 1036.72 25.884 1038.36 25.884C1039.99 25.884 1040.8 24.672 1040.8 22.248C1040.8 19.836 1039.99 18.63 1038.37 18.63Z" fill="#001C00"/>
<path d="M1099.14 14.382C1099.88 14.382 1100.51 14.478 1101.01 14.67C1101.53 14.862 1102.05 15.174 1102.58 15.606L1101.64 16.704C1100.88 16.092 1100.09 15.786 1099.25 15.786C1098.21 15.786 1097.38 16.182 1096.74 16.974C1096.12 17.766 1095.81 19.038 1095.81 20.79C1095.81 22.494 1096.12 23.754 1096.74 24.57C1097.37 25.374 1098.2 25.776 1099.23 25.776C1099.76 25.776 1100.22 25.686 1100.61 25.506C1101.01 25.326 1101.43 25.074 1101.87 24.75L1102.72 25.83C1102.34 26.226 1101.84 26.556 1101.24 26.82C1100.64 27.084 1099.95 27.216 1099.17 27.216C1098.17 27.216 1097.27 26.97 1096.47 26.478C1095.69 25.974 1095.08 25.242 1094.64 24.282C1094.21 23.31 1093.99 22.146 1093.99 20.79C1093.99 19.434 1094.22 18.276 1094.67 17.316C1095.13 16.344 1095.75 15.612 1096.53 15.12C1097.31 14.628 1098.18 14.382 1099.14 14.382Z" fill="#001C00"/>
<path d="M1107.99 17.298C1109.33 17.298 1110.36 17.742 1111.09 18.63C1111.83 19.518 1112.21 20.724 1112.21 22.248C1112.21 23.232 1112.04 24.102 1111.7 24.858C1111.37 25.602 1110.88 26.184 1110.24 26.604C1109.61 27.012 1108.85 27.216 1107.98 27.216C1106.64 27.216 1105.61 26.772 1104.86 25.884C1104.12 24.996 1103.75 23.79 1103.75 22.266C1103.75 21.282 1103.91 20.418 1104.25 19.674C1104.59 18.918 1105.07 18.336 1105.71 17.928C1106.34 17.508 1107.11 17.298 1107.99 17.298ZM1107.99 18.63C1106.35 18.63 1105.53 19.842 1105.53 22.266C1105.53 24.678 1106.34 25.884 1107.98 25.884C1109.61 25.884 1110.42 24.672 1110.42 22.248C1110.42 19.836 1109.61 18.63 1107.99 18.63Z" fill="#001C00"/>
<path d="M1119.41 17.298C1120.27 17.298 1120.94 17.556 1121.42 18.072C1121.91 18.588 1122.16 19.296 1122.16 20.196V27H1120.5V20.43C1120.5 19.758 1120.38 19.284 1120.13 19.008C1119.87 18.732 1119.5 18.594 1119.01 18.594C1118.51 18.594 1118.06 18.738 1117.68 19.026C1117.29 19.314 1116.93 19.728 1116.6 20.268V27H1114.94V17.514H1116.36L1116.51 18.918C1116.84 18.414 1117.26 18.018 1117.75 17.73C1118.25 17.442 1118.81 17.298 1119.41 17.298Z" fill="#001C00"/>
<path d="M1130.28 26.568C1129.65 27 1128.95 27.216 1128.15 27.216C1127.35 27.216 1126.72 26.988 1126.26 26.532C1125.82 26.064 1125.6 25.392 1125.6 24.516V18.792H1123.94V17.514H1125.6V15.372L1127.25 15.174V17.514H1129.5L1129.32 18.792H1127.25V24.444C1127.25 24.936 1127.34 25.296 1127.51 25.524C1127.69 25.74 1127.98 25.848 1128.39 25.848C1128.76 25.848 1129.18 25.722 1129.65 25.47L1130.28 26.568Z" fill="#001C00"/>
<path d="M1138.26 24.786C1138.26 25.17 1138.33 25.458 1138.46 25.65C1138.59 25.83 1138.79 25.968 1139.05 26.064L1138.67 27.216C1138.18 27.156 1137.79 27.018 1137.49 26.802C1137.19 26.586 1136.96 26.25 1136.82 25.794C1136.18 26.742 1135.24 27.216 1133.99 27.216C1133.06 27.216 1132.32 26.952 1131.78 26.424C1131.24 25.896 1130.97 25.206 1130.97 24.354C1130.97 23.346 1131.33 22.572 1132.05 22.032C1132.78 21.492 1133.81 21.222 1135.15 21.222H1136.6V20.52C1136.6 19.848 1136.44 19.368 1136.12 19.08C1135.79 18.792 1135.3 18.648 1134.62 18.648C1133.93 18.648 1133.08 18.816 1132.07 19.152L1131.65 17.946C1132.83 17.514 1133.92 17.298 1134.93 17.298C1136.05 17.298 1136.88 17.574 1137.43 18.126C1137.98 18.666 1138.26 19.44 1138.26 20.448V24.786ZM1134.37 25.974C1135.32 25.974 1136.06 25.482 1136.6 24.498V22.32H1135.36C1133.61 22.32 1132.73 22.968 1132.73 24.264C1132.73 24.828 1132.87 25.254 1133.15 25.542C1133.42 25.83 1133.83 25.974 1134.37 25.974Z" fill="#001C00"/>
<path d="M1146.45 26.568C1145.83 27 1145.12 27.216 1144.33 27.216C1143.52 27.216 1142.89 26.988 1142.44 26.532C1141.99 26.064 1141.77 25.392 1141.77 24.516V18.792H1140.11V17.514H1141.77V15.372L1143.43 15.174V17.514H1145.68L1145.5 18.792H1143.43V24.444C1143.43 24.936 1143.51 25.296 1143.68 25.524C1143.86 25.74 1144.15 25.848 1144.56 25.848C1144.93 25.848 1145.35 25.722 1145.82 25.47L1146.45 26.568Z" fill="#001C00"/>
<path d="M1151.47 17.298C1152.8 17.298 1153.83 17.742 1154.56 18.63C1155.31 19.518 1155.68 20.724 1155.68 22.248C1155.68 23.232 1155.51 24.102 1155.17 24.858C1154.84 25.602 1154.35 26.184 1153.72 26.604C1153.08 27.012 1152.32 27.216 1151.45 27.216C1150.12 27.216 1149.08 26.772 1148.33 25.884C1147.59 24.996 1147.22 23.79 1147.22 22.266C1147.22 21.282 1147.39 20.418 1147.72 19.674C1148.06 18.918 1148.54 18.336 1149.18 17.928C1149.82 17.508 1150.58 17.298 1151.47 17.298ZM1151.47 18.63C1149.82 18.63 1149 19.842 1149 22.266C1149 24.678 1149.82 25.884 1151.45 25.884C1153.08 25.884 1153.9 24.672 1153.9 22.248C1153.9 19.836 1153.09 18.63 1151.47 18.63Z" fill="#001C00"/>
</svg>
